<svg width="32" height="32" viewBox="0 0 32 32" fill="none" xmlns="http://www.w3.org/2000/svg">
<path d="M16.0003 26.668C18.8293 26.668 21.5424 25.5442 23.5428 23.5438C25.5432 21.5434 26.667 18.8303 26.667 16.0013C26.667 13.1723 25.5432 10.4592 23.5428 8.45883C21.5424 6.45844 18.8293 5.33464 16.0003 5.33464C13.1714 5.33464 10.4582 6.45844 8.45785 8.45883C6.45747 10.4592 5.33366 13.1723 5.33366 16.0013C5.33366 18.8303 6.45747 21.5434 8.45785 23.5438C10.4582 25.5442 13.1714 26.668 16.0003 26.668ZM16.0003 2.66797C17.7513 2.66797 19.4851 3.01285 21.1028 3.68291C22.7204 4.35297 24.1903 5.3351 25.4284 6.57321C26.6665 7.81133 27.6487 9.28118 28.3187 10.8989C28.9888 12.5165 29.3337 14.2503 29.3337 16.0013C29.3337 19.5375 27.9289 22.9289 25.4284 25.4294C22.9279 27.9299 19.5365 29.3346 16.0003 29.3346C8.62699 29.3346 2.66699 23.3346 2.66699 16.0013C2.66699 12.4651 4.07175 9.0737 6.57224 6.57321C9.07272 4.07273 12.4641 2.66797 16.0003 2.66797ZM16.667 9.33464V16.3346L22.667 19.8946L21.667 21.5346L14.667 17.3346V9.33464H16.667Z" fill="white"/>
</svg>
