<svg width="20" height="20" viewBox="0 0 20 20" fill="none" xmlns="http://www.w3.org/2000/svg">
<path fill-rule="evenodd" clip-rule="evenodd" d="M13.7911 2.70964C13.7911 3.6263 13.0411 4.3763 12.1244 4.3763C11.2078 4.3763 10.4578 3.6263 10.4578 2.70964C10.4578 1.79297 11.2078 1.04297 12.1244 1.04297C13.0411 1.04297 13.7911 1.79297 13.7911 2.70964ZM9.95768 12.293L9.12435 15.9596L3.29102 14.793L3.62435 13.1263L7.70768 13.9596L9.04102 7.20964L7.54102 7.79297V10.6263H5.87435V6.70964L10.2077 4.8763C10.3327 4.8763 10.4368 4.85547 10.541 4.83464C10.6452 4.8138 10.7493 4.79297 10.8743 4.79297C11.4577 4.79297 11.9577 5.1263 12.291 5.6263L13.1243 6.95964C13.791 8.1263 15.1243 8.95964 16.7077 8.95964V10.6263C14.8743 10.6263 13.2077 9.79297 12.1243 8.54297L11.6243 11.043L13.3743 12.7096V18.9596H11.7077V13.9596L9.95768 12.293Z" fill="black"/>
</svg>
