<svg width="44" height="44" viewBox="0 0 44 44" fill="none" xmlns="http://www.w3.org/2000/svg">
<g clip-path="url(#clip0_1426_2594)">
<path d="M40.5809 26.06V23.8599H25.2121C23.2341 23.8599 21.4716 24.7951 20.3398 26.2454C19.208 24.7952 17.4455 23.8599 15.4675 23.8599H0.098877V26.06H13.9148V28.6739H0.098877V30.874H2.71284H19.033H21.6469H37.967H40.5809V28.6739H26.7651V26.06H40.5809Z" fill="white"/>
<path d="M0.953316 33.4873H0.0983243H-1.66064V36.8552H19.0323V34.2412V33.4873H0.953316Z" fill="white"/>
<path d="M40.5808 33.4873H39.7258H21.6467V34.2412V36.8552H42.3398V33.4873H40.5808Z" fill="white"/>
<path d="M23.3073 7.14453H20.6934V16.1601H23.3073V7.14453Z" fill="white"/>
<path d="M5.5727 13.4073L3.72437 15.2556L10.0992 21.6305L11.9476 19.7822L5.5727 13.4073Z" fill="white"/>
<path d="M30.184 8.51301L26.7336 16.8428L29.1488 17.8432L32.5991 9.5134L30.184 8.51301Z" fill="white"/>
<path d="M13.8162 8.51279L11.4011 9.51318L14.8515 17.843L17.2666 16.8426L13.8162 8.51279Z" fill="white"/>
<path d="M38.4281 13.4088L32.0532 19.7837L33.9016 21.632L40.2764 15.2571L38.4281 13.4088Z" fill="white"/>
</g>
<defs>
<clipPath id="clip0_1426_2594">
<rect width="44" height="44" fill="white"/>
</clipPath>
</defs>
</svg>
