<svg width="44" height="44" viewBox="0 0 44 44" fill="none" xmlns="http://www.w3.org/2000/svg">
<path d="M4.3999 11.0001C4.3999 9.83314 4.86347 8.71399 5.68863 7.88883C6.51379 7.06367 7.63295 6.6001 8.7999 6.6001H24.1999C25.3669 6.6001 26.486 7.06367 27.3112 7.88883C28.1363 8.71399 28.5999 9.83314 28.5999 11.0001V19.8001C28.5999 20.967 28.1363 22.0862 27.3112 22.9114C26.486 23.7365 25.3669 24.2001 24.1999 24.2001H19.7999L13.1999 30.8001V24.2001H8.7999C7.63295 24.2001 6.51379 23.7365 5.68863 22.9114C4.86347 22.0862 4.3999 20.967 4.3999 19.8001V11.0001Z" fill="white"/>
<path d="M32.9994 15.3999V19.7999C32.9994 22.1338 32.0723 24.3721 30.422 26.0224C28.7717 27.6728 26.5333 28.5999 24.1994 28.5999H21.621L17.7358 32.4873C18.3518 32.8151 19.0536 32.9999 19.7994 32.9999H24.1994L30.7994 39.5999V32.9999H35.1994C36.3664 32.9999 37.4855 32.5363 38.3107 31.7112C39.1359 30.886 39.5994 29.7669 39.5994 28.5999V19.7999C39.5994 18.6329 39.1359 17.5138 38.3107 16.6886C37.4855 15.8635 36.3664 15.3999 35.1994 15.3999H32.9994Z" fill="white"/>
</svg>
