<svg width="22" height="40" viewBox="0 0 22 40" fill="none" xmlns="http://www.w3.org/2000/svg">
<mask id="path-1-inside-1_2052_829" fill="white">
<path d="M11.0001 15L16.0001 20L11.0001 25L9.93945 23.9393L13.8788 20L9.93945 16.0607L11.0001 15Z"/>
</mask>
<path d="M11.0001 15L16.0001 20L11.0001 25L9.93945 23.9393L13.8788 20L9.93945 16.0607L11.0001 15Z" fill="#363636"/>
<path d="M16.0001 20L17.0608 21.0607L18.1214 20L17.0608 18.9393L16.0001 20ZM11.0001 15L12.0608 13.9393L11.0001 12.8787L9.93945 13.9393L11.0001 15ZM11.0001 25L9.93945 26.0607L11.0001 27.1213L12.0608 26.0607L11.0001 25ZM9.93945 16.0607L8.87879 15L7.81813 16.0607L8.87879 17.1213L9.93945 16.0607ZM9.93945 23.9393L8.87879 22.8787L7.81813 23.9393L8.87879 25L9.93945 23.9393ZM13.8788 20L14.9395 21.0607L16.0001 20L14.9395 18.9393L13.8788 20ZM17.0608 18.9393L12.0608 13.9393L9.93945 16.0607L14.9395 21.0607L17.0608 18.9393ZM12.0608 26.0607L17.0608 21.0607L14.9395 18.9393L9.93945 23.9393L12.0608 26.0607ZM9.93945 13.9393L8.87879 15L11.0001 17.1213L12.0608 16.0607L9.93945 13.9393ZM8.87879 25L9.93945 26.0607L12.0608 23.9393L11.0001 22.8787L8.87879 25ZM12.8181 18.9393L8.87879 22.8787L11.0001 25L14.9395 21.0607L12.8181 18.9393ZM8.87879 17.1213L12.8181 21.0607L14.9395 18.9393L11.0001 15L8.87879 17.1213Z" fill="#363636" mask="url(#path-1-inside-1_2052_829)"/>
</svg>
