<svg width="296" height="49" viewBox="0 0 296 49" fill="none" xmlns="http://www.w3.org/2000/svg">
<path fill-rule="evenodd" clip-rule="evenodd" d="M0.0191212 4.96362H15.2185H15.5981V4.96929C22.2952 5.16936 27.6627 10.6466 27.6627 17.3741C27.6627 20.2304 26.6952 22.8613 25.0691 24.9586C29.4458 26.8815 32.5013 31.2456 32.5013 36.3214C32.5013 42.9256 27.3288 48.3249 20.8036 48.71V48.7319H20.0791L20.0571 48.7319L20.035 48.7319H0V39.2583L20.4362 39.2583V39.2564C21.7037 39.2067 22.716 38.1662 22.716 36.8899C22.716 35.6136 21.7037 34.5731 20.4362 34.5233V34.5214H20.3412H7.74287L2.08984 34.5214V19.2215H2.9113C2.90893 19.2057 2.9066 19.1899 2.9043 19.1741H15.5501H15.5502C16.8617 19.1741 17.925 18.1137 17.925 16.8057C17.925 15.4977 16.8617 14.4373 15.5502 14.4373H15.5501H3.12485L0.0191212 14.4373V4.96362Z" fill="white"/>
<path d="M1.87662 16.569L19.6879 26.8245L1.87662 37.08L1.87662 16.569Z" fill="#55AE3A"/>
<path d="M45.3083 9.58544C44.3452 9.58544 43.5315 9.23597 42.8673 8.53703C42.2362 7.83809 41.9207 7.00602 41.9207 6.04082V4.59302C41.9207 3.59454 42.2362 2.76247 42.8673 2.09682C43.4983 1.39788 44.312 1.04841 45.3083 1.04841H46.8029C47.7992 1.04841 48.6129 1.39788 49.244 2.09682C49.875 2.76247 50.1905 3.59454 50.1905 4.59302V6.04082C50.1905 7.00602 49.875 7.83809 49.244 8.53703C48.6129 9.23597 47.7992 9.58544 46.8029 9.58544H45.3083ZM56.4177 9.58544C55.4546 9.58544 54.6409 9.23597 53.9767 8.53703C53.3456 7.83809 53.0301 7.00602 53.0301 6.04082V4.59302C53.0301 3.59454 53.3456 2.76247 53.9767 2.09682C54.6077 1.39788 55.4214 1.04841 56.4177 1.04841H57.9123C58.9086 1.04841 59.7223 1.39788 60.3533 2.09682C60.9844 2.76247 61.2999 3.59454 61.2999 4.59302V6.04082C61.2999 7.00602 60.9844 7.83809 60.3533 8.53703C59.7223 9.23597 58.9086 9.58544 57.9123 9.58544H56.4177ZM51.5356 47.378C48.2808 47.378 45.4246 46.8622 42.9669 45.8304C40.5092 44.7653 38.5995 43.251 37.2378 41.2873C35.8762 39.2903 35.1953 36.9272 35.1953 34.1981V15.5264C35.1953 14.5612 35.4112 13.8456 35.8429 13.3797C36.3079 12.9137 37.0884 12.6807 38.1844 12.6807H44.1127C45.2419 12.6807 46.0224 12.9137 46.4542 13.3797C46.9191 13.8124 47.1516 14.5279 47.1516 15.5264V34.3478C47.1516 35.9121 47.5335 37.077 48.2974 37.8425C49.0945 38.608 50.1739 38.9908 51.5356 38.9908C52.8973 38.9908 53.9601 38.608 54.7239 37.8425C55.521 37.077 55.9196 35.9121 55.9196 34.3478V15.5264C55.9196 14.5612 56.1354 13.8456 56.5672 13.3797C57.0322 12.9137 57.8126 12.6807 58.9086 12.6807H64.837C65.9662 12.6807 66.7466 12.9137 67.1784 13.3797C67.6434 13.8124 67.8759 14.5279 67.8759 15.5264V34.1981C67.8759 36.9272 67.195 39.2903 65.8333 41.2873C64.4716 43.251 62.5619 44.7653 60.1043 45.8304C57.6466 46.8622 54.7904 47.378 51.5356 47.378Z" fill="white"/>
<path d="M72.5996 46.6292C71.5036 46.6292 70.7231 46.3962 70.2582 45.9302C69.8264 45.4643 69.6105 44.7487 69.6105 43.7835V15.4765C69.6105 14.5113 69.8264 13.8124 70.2582 13.3797C70.7231 12.9137 71.5202 12.6807 72.6494 12.6807H77.3821C78.0796 12.6807 78.611 12.7806 78.9763 12.9803C79.3748 13.1467 79.7568 13.4962 80.1221 14.0287L89.1391 27.4583V15.5264C89.1391 14.5612 89.355 13.8456 89.7868 13.3797C90.2517 12.9137 91.0322 12.6807 92.1282 12.6807H98.0565C99.1857 12.6807 99.9662 12.9137 100.398 13.3797C100.863 13.8124 101.095 14.5279 101.095 15.5264V43.8334C101.095 44.7986 100.863 45.5142 100.398 45.9802C99.9662 46.4128 99.1857 46.6292 98.0565 46.6292H93.3238C92.6264 46.6292 92.0784 46.546 91.6799 46.3796C91.3145 46.1799 90.9492 45.8137 90.5839 45.2812L81.5668 31.8516V43.8334C81.5668 44.7986 81.3343 45.5142 80.8694 45.9802C80.4376 46.4128 79.6571 46.6292 78.5279 46.6292H72.5996Z" fill="white"/>
<path d="M115.5 46.6292C114.404 46.6292 113.624 46.3962 113.159 45.9302C112.727 45.4643 112.511 44.7487 112.511 43.7835V21.1678H105.337C104.275 21.1678 103.544 20.9515 103.145 20.5188C102.78 20.0529 102.597 19.3207 102.597 18.3222V15.5264C102.597 14.5279 102.78 13.8124 103.145 13.3797C103.544 12.9137 104.275 12.6807 105.337 12.6807H131.641C132.704 12.6807 133.418 12.9137 133.783 13.3797C134.182 13.8124 134.381 14.5279 134.381 15.5264V18.3222C134.381 19.3207 134.182 20.0529 133.783 20.5188C133.418 20.9515 132.704 21.1678 131.641 21.1678H124.467V43.7835C124.467 44.7487 124.235 45.4643 123.77 45.9302C123.338 46.3962 122.558 46.6292 121.429 46.6292H115.5Z" fill="white"/>
<path d="M138.861 46.6292C137.765 46.6292 136.985 46.3962 136.52 45.9302C136.088 45.4643 135.872 44.7487 135.872 43.7835V15.5264C135.872 14.5612 136.088 13.8456 136.52 13.3797C136.985 12.9137 137.765 12.6807 138.861 12.6807H159.486C160.549 12.6807 161.263 12.9137 161.628 13.3797C162.027 13.8124 162.226 14.5279 162.226 15.5264V18.3222C162.226 19.3207 162.027 20.0529 161.628 20.5188C161.263 20.9515 160.549 21.1678 159.486 21.1678H147.829V25.4613H155.002C156.065 25.4613 156.779 25.6943 157.144 26.1603C157.543 26.5929 157.742 27.3085 157.742 28.307V31.0029C157.742 32.0014 157.543 32.7336 157.144 33.1996C156.779 33.6323 156.065 33.8486 155.002 33.8486H147.829V38.1421H159.436C160.499 38.1421 161.213 38.375 161.578 38.841C161.977 39.2737 162.176 39.9893 162.176 40.9877V43.7835C162.176 44.782 161.977 45.5142 161.578 45.9802C161.213 46.4128 160.499 46.6292 159.436 46.6292H138.861Z" fill="white"/>
<path d="M175.389 46.6292C174.293 46.6292 173.512 46.3962 173.047 45.9302C172.616 45.4643 172.4 44.7487 172.4 43.7835V21.1678H165.226C164.163 21.1678 163.432 20.9515 163.034 20.5188C162.669 20.0529 162.486 19.3207 162.486 18.3222V15.5264C162.486 14.5279 162.669 13.8124 163.034 13.3797C163.432 12.9137 164.163 12.6807 165.226 12.6807H191.53C192.592 12.6807 193.307 12.9137 193.672 13.3797C194.07 13.8124 194.27 14.5279 194.27 15.5264V18.3222C194.27 19.3207 194.07 20.0529 193.672 20.5188C193.307 20.9515 192.592 21.1678 191.53 21.1678H184.356V43.7835C184.356 44.7487 184.123 45.4643 183.658 45.9302C183.227 46.3962 182.446 46.6292 181.317 46.6292H175.389Z" fill="white"/>
<path d="M203.632 9.98483C202.27 9.98483 201.589 9.51888 201.589 8.58696C201.589 8.28741 201.656 8.00451 201.789 7.73825L204.628 1.94704C204.894 1.38123 205.11 0.98184 205.276 0.748862C205.442 0.515881 205.691 0.332826 206.023 0.199694C206.389 0.0665647 206.92 0 207.617 0H213.745C214.442 0 215.007 0.13313 215.439 0.399391C215.871 0.632372 216.086 0.981841 216.086 1.4478C216.086 1.81391 215.92 2.22994 215.588 2.6959L211.653 8.08772C211.221 8.68681 210.889 9.10284 210.656 9.33582C210.424 9.53551 210.108 9.70193 209.71 9.83506C209.311 9.93491 208.73 9.98483 207.966 9.98483H203.632ZM216.734 9.98483C215.372 9.98483 214.692 9.51888 214.692 8.58696C214.692 8.28741 214.758 8.00451 214.891 7.73825L217.73 1.94704C217.996 1.38123 218.212 0.98184 218.378 0.748862C218.544 0.515881 218.793 0.332826 219.125 0.199694C219.491 0.0665647 220.022 0 220.719 0H226.847C227.545 0 228.109 0.13313 228.541 0.399391C228.973 0.632372 229.189 0.981841 229.189 1.4478C229.189 1.81391 229.022 2.22994 228.69 2.6959L224.755 8.08772C224.323 8.68681 223.991 9.10284 223.758 9.33582C223.526 9.53551 223.21 9.70193 222.812 9.83506C222.413 9.93491 221.832 9.98483 221.068 9.98483H216.734ZM212.798 47.378C206.887 47.378 202.403 45.847 199.348 42.785C196.292 39.6897 194.764 35.313 194.764 29.655C194.764 23.9969 196.292 19.6368 199.348 16.5748C202.403 13.4795 206.887 11.9319 212.798 11.9319C218.71 11.9319 223.194 13.4795 226.249 16.5748C229.305 19.6368 230.833 23.9969 230.833 29.655C230.833 35.313 229.305 39.6897 226.249 42.785C223.194 45.847 218.71 47.378 212.798 47.378ZM212.798 38.9908C214.957 38.9908 216.518 38.2253 217.481 36.6943C218.444 35.13 218.926 32.7835 218.926 29.655C218.926 26.4931 218.444 24.1467 217.481 22.6156C216.518 21.0846 214.957 20.3191 212.798 20.3191C210.64 20.3191 209.079 21.0846 208.116 22.6156C207.152 24.1467 206.671 26.4931 206.671 29.655C206.671 32.7835 207.152 35.13 208.116 36.6943C209.079 38.2253 210.64 38.9908 212.798 38.9908Z" fill="white"/>
<path d="M233.787 46.6292C233.269 46.6292 232.84 46.4495 232.502 46.09C232.183 45.7106 232.023 45.2712 232.023 44.772V44.0231C232.023 43.484 232.183 43.0446 232.502 42.7051C232.84 42.3457 233.269 42.166 233.787 42.166H234.564C235.082 42.166 235.501 42.3457 235.82 42.7051C236.158 43.0446 236.328 43.484 236.328 44.0231V44.772C236.328 45.2912 236.158 45.7305 235.82 46.09C235.501 46.4495 235.082 46.6292 234.564 46.6292H233.787Z" fill="white"/>
<path d="M246.097 47.0785C243.227 47.0785 241.025 46.4295 239.491 45.1315C237.977 43.8135 237.219 41.9163 237.219 39.4401C237.219 37.9024 237.578 36.5645 238.295 35.4262C239.013 34.268 240.049 33.3793 241.404 32.7602C242.759 32.1212 244.373 31.8017 246.246 31.8017C247.641 31.8017 248.827 31.9415 249.803 32.2211C250.78 32.5006 251.647 32.9 252.404 33.4192C252.643 33.599 252.763 33.7987 252.763 34.0183C252.763 34.1981 252.673 34.4477 252.493 34.7672L251.059 37.2534C250.899 37.553 250.7 37.7027 250.461 37.7027C250.282 37.7027 250.062 37.6129 249.803 37.4331C249.325 37.1136 248.877 36.884 248.458 36.7442C248.06 36.6044 247.552 36.5345 246.934 36.5345C246.177 36.5345 245.559 36.7941 245.081 37.3133C244.602 37.8325 244.363 38.5415 244.363 39.4401C244.363 40.3587 244.602 41.0676 245.081 41.5669C245.579 42.0661 246.236 42.3157 247.053 42.3157C247.591 42.3157 248.09 42.2358 248.548 42.0761C249.006 41.9163 249.494 41.6867 250.013 41.3871C250.311 41.2074 250.541 41.1175 250.7 41.1175C250.919 41.1175 251.109 41.2673 251.268 41.5669L252.852 44.2927C252.972 44.4924 253.032 44.6622 253.032 44.802C253.032 45.0416 252.892 45.2413 252.613 45.401C251.696 45.9602 250.73 46.3796 249.714 46.6591C248.717 46.9387 247.512 47.0785 246.097 47.0785Z" fill="white"/>
<path d="M262.853 47.0785C260.999 47.0785 259.395 46.769 258.04 46.1499C256.705 45.5109 255.689 44.6222 254.991 43.484C254.294 42.3257 253.945 40.9778 253.945 39.4401C253.945 37.8825 254.294 36.5345 254.991 35.3962C255.689 34.238 256.705 33.3493 258.04 32.7303C259.395 32.1112 260.999 31.8017 262.853 31.8017C265.662 31.8017 267.854 32.4907 269.429 33.8686C271.003 35.2265 271.79 37.0837 271.79 39.4401C271.79 40.9778 271.431 42.3257 270.714 43.484C270.017 44.6222 269 45.5109 267.665 46.1499C266.33 46.769 264.726 47.0785 262.853 47.0785ZM262.853 42.0461C264.048 42.0461 264.646 41.1775 264.646 39.4401C264.646 38.5215 264.487 37.8625 264.168 37.4631C263.869 37.0637 263.431 36.864 262.853 36.864C262.275 36.864 261.836 37.0637 261.538 37.4631C261.239 37.8625 261.089 38.5215 261.089 39.4401C261.089 41.1775 261.677 42.0461 262.853 42.0461Z" fill="white"/>
<path d="M275.107 46.6292C274.449 46.6292 273.981 46.4894 273.702 46.2098C273.423 45.9302 273.283 45.5009 273.283 44.9218V33.2395C273.283 32.8401 273.353 32.5805 273.492 32.4607C273.652 32.3209 273.961 32.251 274.419 32.251H277.886C278.145 32.251 278.335 32.281 278.454 32.3409C278.594 32.3808 278.683 32.4907 278.723 32.6704L278.903 33.4192C279.481 32.92 280.098 32.5306 280.756 32.251C281.433 31.9515 282.211 31.8017 283.087 31.8017C283.904 31.8017 284.592 31.9315 285.15 32.1911C285.728 32.4307 286.256 32.8202 286.734 33.3593C287.292 32.8601 287.9 32.4807 288.557 32.2211C289.215 31.9415 290.032 31.8017 291.008 31.8017C292.603 31.8017 293.828 32.261 294.685 33.1796C295.562 34.0782 296 35.4462 296 37.2834V44.9218C296 45.5009 295.861 45.9302 295.582 46.2098C295.323 46.4894 294.864 46.6292 294.207 46.6292H291.248C290.59 46.6292 290.122 46.4894 289.843 46.2098C289.564 45.9302 289.424 45.5009 289.424 44.9218V37.7327C289.424 36.9539 289.165 36.5645 288.647 36.5645C288.348 36.5645 288.129 36.6643 287.989 36.864C287.85 37.0437 287.78 37.3333 287.78 37.7327V44.9218C287.78 45.5009 287.641 45.9302 287.362 46.2098C287.103 46.4894 286.644 46.6292 285.987 46.6292H283.326C282.669 46.6292 282.201 46.4894 281.922 46.2098C281.643 45.9302 281.503 45.5009 281.503 44.9218V37.7327C281.503 36.9539 281.244 36.5645 280.726 36.5645C280.427 36.5645 280.208 36.6643 280.068 36.864C279.929 37.0437 279.859 37.3333 279.859 37.7327V44.9218C279.859 45.5009 279.72 45.9302 279.441 46.2098C279.182 46.4894 278.723 46.6292 278.066 46.6292H275.107Z" fill="white"/>
</svg>
