<svg width="44" height="44" viewBox="0 0 44 44" fill="none" xmlns="http://www.w3.org/2000/svg">
<path d="M29.3333 31.1658V25.6658H16.5V18.3324H29.3333V12.8324L38.5 21.9991L29.3333 31.1658ZM25.6667 3.66577C26.6391 3.66577 27.5718 4.05208 28.2594 4.73971C28.947 5.42735 29.3333 6.35998 29.3333 7.33244V10.9991H25.6667V7.33244H9.16667V36.6658H25.6667V32.9991H29.3333V36.6658C29.3333 37.6382 28.947 38.5709 28.2594 39.2585C27.5718 39.9461 26.6391 40.3324 25.6667 40.3324H9.16667C8.19421 40.3324 7.26157 39.9461 6.57394 39.2585C5.88631 38.5709 5.5 37.6382 5.5 36.6658V7.33244C5.5 6.35998 5.88631 5.42735 6.57394 4.73971C7.26157 4.05208 8.19421 3.66577 9.16667 3.66577H25.6667Z" fill="white"/>
</svg>
