<svg width="44" height="44" viewBox="0 0 44 44" fill="none" xmlns="http://www.w3.org/2000/svg">
<path fill-rule="evenodd" clip-rule="evenodd" d="M15.4001 8.79995C15.4001 7.04952 16.0955 5.37079 17.3332 4.13305C18.5709 2.89531 20.2497 2.19995 22.0001 2.19995C23.7505 2.19995 25.4293 2.89531 26.667 4.13305C27.9047 5.37079 28.6001 7.04952 28.6001 8.79995V17.5999C28.6001 19.3504 27.9047 21.0291 26.667 22.2669C25.4293 23.5046 23.7505 24.1999 22.0001 24.1999C20.2497 24.1999 18.5709 23.5046 17.3332 22.2669C16.0955 21.0291 15.4001 19.3504 15.4001 17.5999V8.79995ZM24.2001 32.8459C27.8658 32.3164 31.2179 30.4837 33.6422 27.6836C36.0665 24.8835 37.4006 21.3037 37.4001 17.5999C37.4001 17.0165 37.1683 16.4569 36.7557 16.0443C36.3432 15.6317 35.7836 15.4 35.2001 15.4C34.6166 15.4 34.057 15.6317 33.6445 16.0443C33.2319 16.4569 33.0001 17.0165 33.0001 17.5999C33.0001 20.5173 31.8412 23.3152 29.7783 25.3781C27.7154 27.441 24.9175 28.5999 22.0001 28.5999C19.0827 28.5999 16.2848 27.441 14.2219 25.3781C12.159 23.3152 11.0001 20.5173 11.0001 17.5999C11.0001 17.0165 10.7683 16.4569 10.3557 16.0443C9.94315 15.6317 9.38357 15.4 8.8001 15.4C8.21662 15.4 7.65704 15.6317 7.24446 16.0443C6.83188 16.4569 6.6001 17.0165 6.6001 17.5999C6.59961 21.3037 7.93374 24.8835 10.358 27.6836C12.7823 30.4837 16.1344 32.3164 19.8001 32.8459V37.3999H13.2001C12.6166 37.3999 12.057 37.6317 11.6445 38.0443C11.2319 38.4569 11.0001 39.0165 11.0001 39.5999C11.0001 40.1834 11.2319 40.743 11.6445 41.1556C12.057 41.5682 12.6166 41.7999 13.2001 41.7999H30.8001C31.3836 41.7999 31.9432 41.5682 32.3557 41.1556C32.7683 40.743 33.0001 40.1834 33.0001 39.5999C33.0001 39.0165 32.7683 38.4569 32.3557 38.0443C31.9432 37.6317 31.3836 37.3999 30.8001 37.3999H24.2001V32.8459Z" fill="white"/>
</svg>
