<svg width="44" height="44" viewBox="0 0 44 44" fill="none" xmlns="http://www.w3.org/2000/svg">
<path d="M38.5 34.8334V36.6667H5.5V34.8334L9.16667 31.1667V20.1667C9.16667 14.4834 12.8883 9.47841 18.3333 7.86508C18.3333 7.68175 18.3333 7.51675 18.3333 7.33341C18.3333 6.36095 18.7196 5.42832 19.4073 4.74069C20.0949 4.05306 21.0275 3.66675 22 3.66675C22.9725 3.66675 23.9051 4.05306 24.5927 4.74069C25.2804 5.42832 25.6667 6.36095 25.6667 7.33341C25.6667 7.51675 25.6667 7.68175 25.6667 7.86508C31.1117 9.47841 34.8333 14.4834 34.8333 20.1667V31.1667L38.5 34.8334ZM25.6667 38.5001C25.6667 39.4725 25.2804 40.4052 24.5927 41.0928C23.9051 41.7804 22.9725 42.1667 22 42.1667C21.0275 42.1667 20.0949 41.7804 19.4073 41.0928C18.7196 40.4052 18.3333 39.4725 18.3333 38.5001" fill="white"/>
</svg>
