<svg width="44" height="44" viewBox="0 0 44 44" fill="none" xmlns="http://www.w3.org/2000/svg">
<path d="M22 22.4583C24.2733 22.4583 26.125 20.6067 26.125 18.3333C26.125 16.06 24.2733 14.2083 22 14.2083C19.7267 14.2083 17.875 16.06 17.875 18.3333C17.875 20.6067 19.7267 22.4583 22 22.4583ZM30.25 29.7917C30.25 27.0417 24.75 25.6667 22 25.6667C19.25 25.6667 13.75 27.0417 13.75 29.7917V31.1667H30.25V29.7917ZM34.8333 5.5H9.16667C7.15 5.5 5.5 7.15 5.5 9.16667V34.8333C5.5 36.85 7.15 38.5 9.16667 38.5H34.8333C36.85 38.5 38.5 36.85 38.5 34.8333V9.16667C38.5 7.15 36.85 5.5 34.8333 5.5ZM33 34.8333H11C9.99167 34.8333 9.16667 34.0083 9.16667 33V11C9.16667 9.99167 9.99167 9.16667 11 9.16667H33C34.0083 9.16667 34.8333 9.99167 34.8333 11V33C34.8333 34.0083 34.0083 34.8333 33 34.8333Z" fill="white"/>
</svg>
