<svg width="72" height="72" viewBox="0 0 72 72" fill="none" xmlns="http://www.w3.org/2000/svg">
<circle cx="36" cy="36" r="36" fill="#55AE3A"/>
<path d="M56.5177 15.4825C55.1644 14.1291 51.3219 13.1383 46.4644 13.1383C39.021 13.1383 29.1852 15.4583 22.346 22.2975C11.0119 33.6558 12.0752 53.0858 15.4827 56.5175C16.836 57.8708 20.6785 58.8616 25.536 58.8616C32.9794 58.8616 42.8152 56.5416 49.6544 49.7025C60.9885 38.3441 59.9252 18.9141 56.5177 15.4825ZM25.7535 25.7533C32.1335 19.3733 41.0994 18.2133 45.1594 18.0441C40.2052 20.3158 34.381 23.965 29.1852 29.185C23.9652 34.405 20.316 40.2533 18.0444 45.2075C18.2619 39.2141 20.1469 31.3358 25.7535 25.7533ZM46.2469 46.2466C39.8669 52.6266 30.901 53.7866 26.841 53.9558C31.7952 51.6841 37.6194 48.035 42.8152 42.815C48.0352 37.595 51.6844 31.7466 53.9802 26.7925C53.7385 32.7858 51.8535 40.6641 46.2469 46.2466Z" fill="white"/>
</svg>
