<svg width="56" height="56" viewBox="0 0 56 56" fill="none" xmlns="http://www.w3.org/2000/svg">
<path d="M50.6948 45.0129L41.6085 35.9266C41.1983 35.5165 40.6424 35.2886 40.0591 35.2886H38.5736C41.089 32.0715 42.5836 28.025 42.5836 23.6231C42.5836 13.1515 34.0988 4.66663 23.6271 4.66663C13.1555 4.66663 4.67065 13.1515 4.67065 23.6231C4.67065 34.0947 13.1555 42.5796 23.6271 42.5796C28.0291 42.5796 32.0755 41.0849 35.2927 38.5696V40.0551C35.2927 40.6384 35.5205 41.1943 35.9306 41.6044L45.017 50.6908C45.8737 51.5475 47.2589 51.5475 48.1065 50.6908L50.6857 48.1116C51.5424 47.2549 51.5424 45.8696 50.6948 45.0129ZM23.6271 35.2886C17.1838 35.2886 11.9616 30.0756 11.9616 23.6231C11.9616 17.1797 17.1746 11.9576 23.6271 11.9576C30.0705 11.9576 35.2927 17.1706 35.2927 23.6231C35.2927 30.0665 30.0796 35.2886 23.6271 35.2886Z" fill="#006633"/>
</svg>
