<svg width="44" height="44" viewBox="0 0 44 44" fill="none" xmlns="http://www.w3.org/2000/svg">
<path fill-rule="evenodd" clip-rule="evenodd" d="M34.8334 14.6667C32.4387 14.6667 30.4014 13.1363 29.6464 11.0001H22.0001V20.1667H29.6464C30.4014 18.0306 32.4387 16.5001 34.8334 16.5001C37.871 16.5001 40.3334 18.9625 40.3334 22.0001C40.3334 25.0376 37.871 27.5001 34.8334 27.5001C32.4387 27.5001 30.4014 25.9696 29.6464 23.8334H22.0001V33.0001H29.6464C30.4014 30.8639 32.4387 29.3334 34.8334 29.3334C37.871 29.3334 40.3334 31.7958 40.3334 34.8334C40.3334 37.871 37.871 40.3334 34.8334 40.3334C32.4387 40.3334 30.4014 38.8029 29.6464 36.6667H20.1667C19.1542 36.6667 18.3334 35.8459 18.3334 34.8334V23.8334H14.3538C13.5988 25.9696 11.5615 27.5001 9.16675 27.5001C6.12918 27.5001 3.66675 25.0376 3.66675 22.0001C3.66675 18.9625 6.12918 16.5001 9.16675 16.5001C11.5615 16.5001 13.5988 18.0306 14.3538 20.1667H18.3334V9.16675C18.3334 8.15423 19.1542 7.33341 20.1667 7.33341H29.6464C30.4014 5.19723 32.4387 3.66675 34.8334 3.66675C37.871 3.66675 40.3334 6.12918 40.3334 9.16675C40.3334 12.2043 37.871 14.6667 34.8334 14.6667ZM33.0001 9.16675C33.0001 8.15423 33.8209 7.33341 34.8334 7.33341C35.8459 7.33341 36.6667 8.15423 36.6667 9.16675C36.6667 10.1793 35.8459 11.0001 34.8334 11.0001C33.8209 11.0001 33.0001 10.1793 33.0001 9.16675ZM11.0001 22.0001C11.0001 20.9876 10.1793 20.1667 9.16675 20.1667C8.15423 20.1667 7.33341 20.9876 7.33341 22.0001C7.33341 23.0126 8.15423 23.8334 9.16675 23.8334C10.1793 23.8334 11.0001 23.0126 11.0001 22.0001ZM33.0001 22.0001C33.0001 23.0126 33.8209 23.8334 34.8334 23.8334C35.8459 23.8334 36.6667 23.0126 36.6667 22.0001C36.6667 20.9876 35.8459 20.1667 34.8334 20.1667C33.8209 20.1667 33.0001 20.9876 33.0001 22.0001ZM34.8334 36.6667C33.8209 36.6667 33.0001 35.8459 33.0001 34.8334C33.0001 33.8209 33.8209 33.0001 34.8334 33.0001C35.8459 33.0001 36.6667 33.8209 36.6667 34.8334C36.6667 35.8459 35.8459 36.6667 34.8334 36.6667Z" fill="white"/>
<path d="M11.0001 22.0001C11.0001 20.9876 10.1793 20.1667 9.16675 20.1667C8.15423 20.1667 7.33341 20.9876 7.33341 22.0001C7.33341 23.0126 8.15423 23.8334 9.16675 23.8334C10.1793 23.8334 11.0001 23.0126 11.0001 22.0001Z" fill="white"/>
<path d="M34.8334 23.8334C33.8209 23.8334 33.0001 23.0126 33.0001 22.0001C33.0001 20.9876 33.8209 20.1667 34.8334 20.1667C35.8459 20.1667 36.6667 20.9876 36.6667 22.0001C36.6667 23.0126 35.8459 23.8334 34.8334 23.8334Z" fill="white"/>
<path d="M34.8334 7.33341C33.8209 7.33341 33.0001 8.15423 33.0001 9.16675C33.0001 10.1793 33.8209 11.0001 34.8334 11.0001C35.8459 11.0001 36.6667 10.1793 36.6667 9.16675C36.6667 8.15423 35.8459 7.33341 34.8334 7.33341Z" fill="white"/>
<path d="M33.0001 34.8334C33.0001 35.8459 33.8209 36.6667 34.8334 36.6667C35.8459 36.6667 36.6667 35.8459 36.6667 34.8334C36.6667 33.8209 35.8459 33.0001 34.8334 33.0001C33.8209 33.0001 33.0001 33.8209 33.0001 34.8334Z" fill="white"/>
</svg>
