<svg width="72" height="72" viewBox="0 0 72 72" fill="none" xmlns="http://www.w3.org/2000/svg">
<circle cx="36" cy="36" r="36" fill="#55AE3A"/>
<g clip-path="url(#clip0_1426_2736)">
<path d="M65 36C65 41.7357 63.2992 47.3425 60.1126 52.1115C56.9261 56.8806 52.3969 60.5976 47.0978 62.7925C41.7988 64.9874 35.9678 65.5617 30.3424 64.4428C24.7169 63.3238 19.5496 60.5618 15.4939 56.5061C11.4382 52.4504 8.67621 47.2831 7.55724 41.6576C6.43827 36.0322 7.01257 30.2012 9.20751 24.9022C11.4024 19.6031 15.1195 15.0739 19.8885 11.8874C24.6575 8.70082 30.2644 7 36 7C39.8085 6.9993 43.5799 7.74893 47.0987 9.20607C50.6174 10.6632 53.8146 12.7993 56.5077 15.4923C59.2007 18.1854 61.3368 21.3826 62.7939 24.9014C64.2511 28.4201 65.0007 32.1915 65 36Z" fill="#B5B3B3"/>
<path d="M64.1645 36.0001C64.1645 41.5704 62.5126 47.0157 59.4179 51.6473C56.3232 56.2789 51.9245 59.8887 46.7782 62.0204C41.6318 64.1521 35.969 64.7099 30.5056 63.6231C25.0423 62.5364 20.0239 59.854 16.0851 55.9152C12.1462 51.9763 9.46384 46.958 8.37712 41.4946C7.29039 36.0313 7.84814 30.3684 9.97983 25.2221C12.1115 20.0757 15.7214 15.6771 20.353 12.5823C24.9846 9.48762 30.4298 7.83582 36.0002 7.83582C39.6989 7.83539 43.3615 8.56358 46.7787 9.97882C50.1959 11.394 53.3009 13.4686 55.9163 16.084C58.5317 18.6994 60.6062 21.8043 62.0215 25.2216C63.4367 28.6388 64.1649 32.3014 64.1645 36.0001Z" fill="#1D428A"/>
<path d="M60.0159 36C60.0168 40.7508 58.609 45.3952 55.9704 49.3459C53.3318 53.2966 49.5809 56.3762 45.1921 58.1952C40.8033 60.0141 35.9737 60.4908 31.3139 59.5649C26.6542 58.6391 22.3737 56.3522 19.0136 52.9936C15.6536 49.6349 13.365 45.3554 12.4372 40.696C11.5093 36.0367 11.984 31.2068 13.8011 26.8173C15.6183 22.4277 18.6963 18.6755 22.6459 16.0353C26.5955 13.395 31.2393 11.9853 35.9901 11.9843C39.1447 11.9833 42.2685 12.6037 45.1833 13.8101C48.098 15.0166 50.7465 16.7853 52.9776 19.0155C55.2086 21.2456 56.9785 23.8934 58.1862 26.8076C59.3938 29.7219 60.0156 32.8454 60.0159 36Z" fill="#C8102E"/>
<path d="M36.0001 11.9845C31.2502 11.9845 26.607 13.393 22.6577 16.0319C18.7083 18.6708 15.6301 22.4215 13.8125 26.8098C11.9948 31.1982 11.5192 36.0269 12.4459 40.6855C13.3725 45.3441 15.6598 49.6233 19.0185 52.982C22.3772 56.3406 26.6564 58.6279 31.315 59.5545C35.9736 60.4811 40.8024 60.0055 45.1907 58.1878C49.579 56.3701 53.3297 53.2919 55.9686 49.3425C58.6074 45.3931 60.0159 40.7499 60.0158 36C60.0083 29.633 57.4756 23.5289 52.9734 19.0268C48.4712 14.5246 42.3671 11.992 36.0001 11.9845ZM13.374 36.705H17.7946V35.2953H13.374C13.3943 34.7616 13.4143 34.2279 13.4748 33.7043C15.0355 25.8199 24.5411 19.7278 36.0001 19.7278C47.4591 19.7278 56.9547 25.8097 58.5254 33.7043C58.5757 34.2279 58.6059 34.7616 58.6262 35.2953H54.2058V36.705H58.6162C58.5959 37.2386 58.5759 37.7723 58.5154 38.2959C56.9447 46.1803 47.4491 52.2724 35.9901 52.2724C24.5311 52.2724 15.0355 46.1903 13.4648 38.2959C13.4145 37.7723 13.3843 37.2486 13.3742 36.705H13.374ZM36.0003 13.3639C40.561 13.3695 45.014 14.7506 48.7775 17.3267C52.541 19.9027 55.4401 23.554 57.0959 27.8035C53.068 22.2956 45.1231 18.5397 36.0001 18.5397C26.8771 18.5397 18.9224 22.2956 14.9047 27.8035C16.5594 23.5532 19.4581 19.9011 23.2219 17.3249C26.9857 14.7486 31.4393 13.3681 36.0003 13.3639ZM36.0003 58.6463C31.4396 58.6407 26.9866 57.2597 23.2231 54.6836C19.4596 52.1075 16.5606 48.4562 14.9047 44.2067C18.9324 49.7146 26.8773 53.4705 36.0003 53.4705C45.1233 53.4705 53.0782 49.7146 57.0959 44.2067C55.4389 48.4554 52.5396 52.1059 48.7763 54.6818C45.0131 57.2577 40.5607 58.6393 36.0003 58.6463Z" fill="white"/>
<path d="M25.8501 44.257H27.5418V36.6344H25.8501V44.257Z" fill="white"/>
<path d="M32.3552 36.6345H32.3049C31.8317 36.6345 30.0897 36.6244 29.7574 36.6345H29.6668C29.1532 36.6345 28.8311 36.876 28.7506 37.3192C28.7445 37.3625 28.7411 37.4062 28.7405 37.45C28.7405 37.4702 28.6197 38.8999 28.7608 39.3028C28.9924 39.9572 29.516 40.199 30.0094 40.3501C30.0296 40.3501 30.0397 40.3601 30.0597 40.3601L30.1502 40.3903C30.1969 40.406 30.2363 40.4382 30.261 40.4809L30.271 43.2299H28.8714L28.8814 44.247H30.724C31.3684 44.2167 31.8013 43.9349 31.9726 43.4515C32.0229 43.0789 32.0229 40.5214 31.9928 39.9877C31.9866 39.8854 31.9571 39.786 31.9065 39.6969C31.8558 39.6079 31.7854 39.5317 31.7007 39.4741C31.6141 39.4078 31.5233 39.3473 31.4289 39.2928C31.3281 39.2425 31.2174 39.182 31.1168 39.1417C30.7139 38.9504 30.271 38.7288 30.271 38.2154V37.7825H31.6002C31.7312 37.7846 31.8601 37.7498 31.9722 37.6822C32.0844 37.6145 32.1753 37.5167 32.2346 37.3999C32.3069 37.2759 32.3548 37.1391 32.3756 36.997C32.3858 36.8898 32.3858 36.7819 32.3756 36.6747L32.3552 36.6345Z" fill="white"/>
<path d="M40.1184 36.6245C39.7497 36.6097 39.3807 36.6436 39.0208 36.7252C38.1851 36.9266 37.7822 37.4805 37.7822 38.427V42.9683C37.7822 44.1264 38.618 44.368 39.8666 44.368C41.3771 44.368 42.2431 43.8344 42.2431 42.8978V38.165C42.2431 36.6243 41.2663 36.6243 40.1184 36.6243V36.6245ZM39.5645 38.3461C39.5668 38.1871 39.5837 38.0287 39.6148 37.8729L39.645 37.8426C39.725 37.8305 39.8057 37.8237 39.8866 37.8224H39.9169C40.4908 37.8324 40.511 38.0037 40.511 39.0408V42.2227C40.5126 42.3168 40.5092 42.4109 40.501 42.5046C40.5015 42.5928 40.4913 42.6807 40.4708 42.7664L40.4405 42.7967C40.3398 42.8067 40.2392 42.8169 40.1384 42.8169C39.9747 42.8313 39.8119 42.7806 39.6853 42.6759C39.5545 42.5348 39.5443 42.3033 39.5545 42.0314V38.8092C39.5545 38.8294 39.5545 38.4668 39.5645 38.3461Z" fill="white"/>
<path d="M46.1804 39.8769C45.3647 36.9365 44.0658 36.6144 43.5321 36.6144C43.4545 36.6143 43.377 36.621 43.3005 36.6346L43.2603 36.6446V44.2672H44.982V41.196L46.1804 44.2672H47.9324V36.6344H46.1904V39.8769H46.1804Z" fill="white"/>
<path d="M23.7759 36.6244L19.4863 36.6344H19.4361V36.6847C19.4341 36.9566 19.531 37.22 19.7089 37.4257C19.8868 37.6313 20.1335 37.7653 20.4028 37.8025V44.2672H22.1649V41.0247H23.6451C24.4306 41.0247 24.8735 40.5111 24.8735 39.615V39.3432C24.8735 37.1683 24.7829 36.7352 23.7759 36.6244ZM23.0912 40.0179H22.1344V37.8025C22.1344 37.8025 22.6581 37.7925 22.7286 37.8025C22.9199 37.8227 23.0912 37.9033 23.0912 38.1248C23.1012 38.1953 23.0912 40.0179 23.0912 40.0179Z" fill="white"/>
<path d="M37.2587 36.6344H33.2812V37.8327H34.4191V44.2672H36.1711V37.8227H36.2316C36.3672 37.8315 36.5031 37.8109 36.63 37.7623C36.7569 37.7136 36.8717 37.6381 36.9666 37.5409C37.1686 37.3027 37.273 36.9969 37.2587 36.6849V36.6344Z" fill="white"/>
<path d="M52.5544 36.6345H52.5041C52.031 36.6345 50.2889 36.6244 49.9566 36.6345H49.8661C49.3524 36.6345 49.0303 36.876 48.9498 37.3192C48.9437 37.3625 48.9403 37.4062 48.9398 37.45C48.9398 37.4702 48.819 38.8999 48.96 39.3028C49.1916 39.9572 49.7152 40.199 50.2086 40.3501C50.2289 40.3501 50.2389 40.3601 50.2589 40.3601L50.3494 40.3903C50.3962 40.406 50.4355 40.4382 50.4602 40.4809L50.4702 43.2299H49.0706L49.0806 44.247H50.9232C51.5676 44.2167 52.0005 43.9349 52.1718 43.4515C52.2221 43.0789 52.2221 40.5214 52.192 39.9877C52.1858 39.8854 52.1563 39.786 52.1057 39.6969C52.055 39.6079 51.9847 39.5317 51.9 39.4741C51.8133 39.4078 51.7225 39.3473 51.6281 39.2928C51.5273 39.2425 51.4166 39.182 51.316 39.1417C50.9132 38.9504 50.4702 38.7288 50.4702 38.2154V37.7825H51.7994C51.9304 37.7846 52.0593 37.7498 52.1715 37.6822C52.2836 37.6145 52.3745 37.5167 52.4338 37.3999C52.5062 37.2759 52.554 37.1391 52.5748 36.997C52.585 36.8898 52.585 36.7819 52.5748 36.6747L52.5544 36.6345Z" fill="white"/>
<path d="M36.9564 31.922H37.2485C37.5304 31.932 38.0037 32.0125 38.0037 32.5261C38.0037 32.7677 38.024 33.5332 38.034 33.815V33.9258C38.0386 34.0875 38.0521 34.2489 38.0742 34.4092C38.195 34.8523 38.5374 35.1241 39.0813 35.1744H39.5747V32.4556C39.5517 32.1654 39.4431 31.8885 39.2626 31.6601L39.2223 31.6099C39.3561 31.4637 39.4589 31.292 39.5247 31.1051C39.5904 30.9183 39.6177 30.72 39.6049 30.5223V30.2605C39.6049 28.1559 39.5244 27.733 38.5376 27.6222H35.2549V35.0737H36.9566L36.9564 31.922ZM36.9665 28.8105H37.3088C37.7519 28.8205 37.923 28.8205 37.903 29.606C37.903 30.2302 37.903 30.2707 37.893 30.5828V30.6433C37.8907 30.7348 37.8589 30.8231 37.8024 30.8951C37.7841 30.914 37.7622 30.9291 37.738 30.9395C37.7138 30.9499 37.6877 30.9554 37.6614 30.9556H36.9667L36.9665 28.8105Z" fill="white"/>
<path d="M47.4994 27.6322H45.8379V35.0837H47.4994V27.6322Z" fill="white"/>
<path d="M31.5998 35.0937H33.3015V28.8003H33.362C33.4951 28.8076 33.6282 28.7872 33.753 28.7404C33.8778 28.6936 33.9915 28.6214 34.087 28.5285C34.283 28.2954 34.3837 27.9969 34.3689 27.6927V27.6425H30.4922V28.8105H31.5998V35.0937Z" fill="white"/>
<path d="M49.4733 35.0937H51.1751V28.8003H51.2356C51.3696 28.8082 51.5037 28.7871 51.6288 28.7385C51.7539 28.6899 51.8671 28.6148 51.9606 28.5185C52.1565 28.2854 52.2572 27.9869 52.2424 27.6827V27.6324H48.3657V28.8005H49.4733V35.0937Z" fill="white"/>
<path d="M29.5961 33.8853H27.8138V32.073H29.0424V30.4618H27.8138V28.7803H29.5961V27.6322H26.1626L26.1523 35.0837H29.5961V33.8853Z" fill="white"/>
<path d="M23.9971 27.6322H19.7478L19.7377 27.6825C19.7133 27.9594 19.7923 28.2355 19.9593 28.4577C20.06 28.568 20.183 28.6556 20.3202 28.7146C20.4573 28.7737 20.6055 28.8028 20.7548 28.8001V35.0735H23.9165C24.6415 35.0735 25.1249 34.4593 25.1249 33.553V30.0994C25.1249 28.1863 25.1249 27.6727 23.9971 27.6324V27.6322ZM23.4029 33.8855H22.4564V28.8003C22.6949 28.7758 22.9357 28.7859 23.1713 28.8305C23.3929 28.9211 23.3829 29.3239 23.3829 29.334C23.4534 29.9281 23.4131 33.4222 23.4031 33.8853" fill="white"/>
<path d="M42.8269 27.6322C42.4583 27.6179 42.0893 27.6518 41.7294 27.733C40.9036 27.9243 40.501 28.4782 40.501 29.3945V33.8351C40.501 34.9729 41.3267 35.2045 42.5651 35.2045C44.0656 35.2045 44.9314 34.6808 44.9314 33.7746V29.1427C44.9314 27.6322 43.9546 27.6322 42.8267 27.6322H42.8269ZM42.2628 29.324C42.265 29.1683 42.2819 29.0133 42.3131 28.8608L42.3434 28.8306C42.4233 28.818 42.504 28.8112 42.5849 28.8103H42.6152C43.1891 28.8203 43.1991 28.9916 43.1991 30.0087V33.1301C43.2008 33.2209 43.1975 33.3116 43.1891 33.402C43.1896 33.4868 43.1795 33.5714 43.1589 33.6538L43.1286 33.684C43.0279 33.694 42.9273 33.7043 42.8265 33.7043C42.7469 33.7139 42.6661 33.7063 42.5896 33.682C42.5132 33.6577 42.4428 33.6172 42.3834 33.5632C42.2526 33.4222 42.2424 33.2006 42.2526 32.939V29.7871C42.2626 29.7871 42.2626 29.4448 42.2626 29.324" fill="white"/>
</g>
<defs>
<clipPath id="clip0_1426_2736">
<rect width="58" height="58" fill="white" transform="translate(7 7)"/>
</clipPath>
</defs>
</svg>
