<svg width="44" height="44" viewBox="0 0 44 44" fill="none" xmlns="http://www.w3.org/2000/svg">
<path d="M0 22C0 9.84974 9.84974 0 22 0C34.1503 0 44 9.84974 44 22C44 34.1503 34.1503 44 22 44C9.84974 44 0 34.1503 0 22Z" fill="#006633"/>
<path d="M18.1491 36.6667C17.8087 36.6667 17.4823 36.5315 17.2416 36.2908C17.001 36.0501 16.8658 35.7237 16.8658 35.3833V31.5333H11.7324C11.0517 31.5333 10.3989 31.2629 9.91752 30.7816C9.43617 30.3002 9.16576 29.6474 9.16576 28.9667V13.5667C9.16576 12.1422 10.3208 11 11.7324 11H32.2658C32.9465 11 33.5993 11.2704 34.0807 11.7518C34.562 12.2331 34.8324 12.8859 34.8324 13.5667V28.9667C34.8324 29.6474 34.562 30.3002 34.0807 30.7816C33.5993 31.2629 32.9465 31.5333 32.2658 31.5333H24.4374L19.6891 36.2945C19.4324 36.5383 19.1116 36.6667 18.7908 36.6667H18.1491Z" fill="white"/>
</svg>
