<svg width="44" height="44" viewBox="0 0 44 44" fill="none" xmlns="http://www.w3.org/2000/svg">
<path fill-rule="evenodd" clip-rule="evenodd" d="M22 44C9.84974 44 0 34.1503 0 22C0 9.84974 9.84974 0 22 0C34.1503 0 44 9.84974 44 22C44 34.1503 34.1503 44 22 44ZM22.3065 20.7653C24.1079 20.7653 32.8665 15.84 32.8665 15.84L32.8806 14.96C32.8806 13.9885 32.0921 13.2 31.118 13.2H13.4951C12.5218 13.2 11.7333 13.9885 11.7333 14.96V15.7441C11.7333 15.7441 20.5879 20.7653 22.3065 20.7653ZM11.7474 18.48C11.7465 18.48 20.5879 23.1853 22.3065 23.1853C24.1906 23.1853 32.8665 18.48 32.8665 18.48L32.8806 29.04C32.8806 30.0115 32.0921 30.8 31.118 30.8H13.4951C12.5227 30.8 11.7333 30.0115 11.7333 29.04L11.7474 18.48Z" fill="#006633"/>
</svg>
