<svg width="44" height="44" viewBox="0 0 44 44" fill="none" xmlns="http://www.w3.org/2000/svg">
<path fill-rule="evenodd" clip-rule="evenodd" d="M22 0C9.84974 0 0 9.84974 0 22C0 34.1503 9.84974 44 22 44C34.1503 44 44 34.1503 44 22C44 9.84974 34.1503 0 22 0ZM15.3888 11C15.4539 11.0516 15.5055 11.0516 15.5571 11.0449C15.8243 11.0224 16.0533 11.0876 16.2014 11.3323C16.2276 11.3747 16.2538 11.4171 16.28 11.4595C16.5863 11.956 16.8931 12.4533 17.1847 12.9621C17.3958 13.3299 17.5972 13.7037 17.7989 14.0779C17.9467 14.3523 18.0946 14.6269 18.2466 14.8995C18.3054 15.0099 18.3789 15.114 18.4524 15.2181C18.4939 15.2769 18.5355 15.3356 18.5743 15.3956C18.6681 15.5447 18.7578 15.6979 18.8454 15.8474L18.8594 15.8715C19.048 16.2285 19.039 16.5876 18.7584 16.8728C18.463 17.1748 18.1456 17.4609 17.8287 17.7464C17.7169 17.8471 17.6052 17.9478 17.4945 18.0491C17.357 18.1753 17.2174 18.2996 17.0779 18.4237C16.8576 18.6197 16.6376 18.8155 16.4259 19.0189C16.1565 19.2793 16.087 19.6048 16.2688 19.9483C16.2856 19.9798 16.3024 20.0113 16.3193 20.0428C16.5829 20.5366 16.8462 21.0298 17.1353 21.513C18.2758 23.4145 19.7327 25.0308 21.5736 26.2768C22.283 26.7595 23.0216 27.2017 23.7669 27.6238C24.4695 28.0211 24.7434 27.9538 25.2889 27.3454C25.5771 27.0254 25.8594 26.7025 26.1421 26.3792C26.3572 26.1332 26.5725 25.8869 26.7908 25.6415C26.912 25.5045 27.058 25.3833 27.1994 25.2666C27.4867 25.0241 27.801 24.9972 28.131 25.1633C28.1517 25.1734 28.1728 25.1833 28.1938 25.1932C28.2666 25.2273 28.34 25.2617 28.4027 25.307C28.9881 25.7258 29.6196 26.0622 30.2504 26.3983C30.563 26.5649 30.8754 26.7313 31.1819 26.9076C31.4979 27.0892 31.8084 27.279 32.1181 27.4683C32.2947 27.5762 32.471 27.6839 32.6478 27.7899C32.9105 27.9448 33.016 28.1715 32.9981 28.4836C32.9487 29.3613 32.8027 30.2234 32.2931 30.9642C32.0799 31.2718 31.7768 31.5412 31.4715 31.7589C30.6252 32.3516 29.68 32.7175 28.6743 32.942C27.7606 33.1463 26.8492 33.0722 25.9736 32.7983C24.2832 32.2775 22.6175 31.6804 21.0842 30.7756C19.6923 29.9517 18.4262 28.9572 17.2543 27.846C15.7704 26.4339 14.4459 24.8939 13.3751 23.1406C12.6769 22.0024 12.1785 20.7767 11.7273 19.5263C11.4534 18.772 11.184 18.0244 11.0628 17.2252C10.9236 16.3205 11.0201 15.4495 11.3097 14.5919C11.5701 13.8174 11.8957 13.0766 12.3873 12.4143C12.7734 11.9002 13.2561 11.5231 13.8802 11.3547C14.2328 11.2614 14.5877 11.1815 14.9424 11.1016C15.0913 11.068 15.2401 11.0345 15.3888 11Z" fill="#006633"/>
</svg>
