<svg width="32" height="32" viewBox="0 0 32 32" fill="none" xmlns="http://www.w3.org/2000/svg">
<circle cx="16" cy="16" r="16" fill="#55AE3A"/>
<path fill-rule="evenodd" clip-rule="evenodd" d="M22.865 3.83474C23.291 3.38842 23.9817 3.38842 24.4078 3.83474L27.6805 7.26331C28.1065 7.70962 28.1065 8.43324 27.6805 8.87955C27.2545 9.32586 26.5637 9.32586 26.1377 8.87955L24.7273 7.40196V19.5C24.7273 20.1312 24.2389 20.6429 23.6364 20.6429H12.7273C12.1248 20.6429 11.6364 20.1312 11.6364 19.5C11.6364 18.8688 12.1248 18.3571 12.7273 18.3571H22.5455V7.40196L21.135 8.87955C20.709 9.32586 20.0183 9.32586 19.5922 8.87955C19.1662 8.43324 19.1662 7.70962 19.5922 7.26331L22.865 3.83474ZM7.27273 13.7857C7.27273 13.1545 7.76114 12.6429 8.36364 12.6429H19.2727C19.8752 12.6429 20.3636 13.1545 20.3636 13.7857C20.3636 14.4169 19.8752 14.9286 19.2727 14.9286H9.45455V23.598L10.865 22.1205C11.291 21.6741 11.9817 21.6741 12.4078 22.1205C12.8338 22.5668 12.8338 23.2904 12.4078 23.7367L9.13503 27.1653C8.709 27.6116 8.01827 27.6116 7.59225 27.1653L4.31952 23.7367C3.89349 23.2904 3.89349 22.5668 4.31952 22.1205C4.74555 21.6741 5.43627 21.6741 5.8623 22.1205L7.27273 23.598V13.7857Z" fill="white"/>
</svg>
