<svg width="32" height="32" viewBox="0 0 32 32" fill="none" xmlns="http://www.w3.org/2000/svg">
<circle cx="16" cy="16" r="16" fill="#55AE3A"/>
<path fill-rule="evenodd" clip-rule="evenodd" d="M12 15C14.2091 15 16 13.2091 16 11C16 8.79086 14.2091 7 12 7C9.79086 7 8 8.79086 8 11C8 13.2091 9.79086 15 12 15ZM12 13C13.1046 13 14 12.1046 14 11C14 9.89543 13.1046 9 12 9C10.8954 9 10 9.89543 10 11C10 12.1046 10.8954 13 12 13Z" fill="white"/>
<path d="M15 18C15.5523 18 16 18.4477 16 19V25H18V19C18 17.3431 16.6569 16 15 16H9C7.34315 16 6 17.3431 6 19V25H8V19C8 18.4477 8.44772 18 9 18H15Z" fill="white"/>
<path d="M26 15H20V17H26V15Z" fill="white"/>
<path d="M20 19H26V21H20V19Z" fill="white"/>
<path d="M26 11H20V13H26V11Z" fill="white"/>
</svg>
