<svg width="24" height="25" viewBox="0 0 24 25" fill="none" xmlns="http://www.w3.org/2000/svg">
<path d="M5.00024 1.48193C5.00024 4.18193 6.56024 6.64193 9.00024 7.80193V22.4819H11.0002V15.4819H13.0002V22.4819H15.0002V7.79193C17.4402 6.64193 19.0002 4.18193 19.0002 1.48193H17.0002C17.0002 2.80802 16.4735 4.07979 15.5358 5.01747C15.0715 5.48176 14.5203 5.85006 13.9137 6.10133C13.307 6.3526 12.6569 6.48193 12.0002 6.48193C10.6742 6.48193 9.40239 5.95515 8.46471 5.01747C7.52703 4.07979 7.00024 2.80802 7.00024 1.48193H5.00024ZM12.0002 1.48193C10.8902 1.48193 10.0002 2.37193 10.0002 3.48193C10.0002 4.59193 10.8902 5.48193 12.0002 5.48193C13.1102 5.48193 14.0002 4.59193 14.0002 3.48193C14.0002 2.37193 13.1102 1.48193 12.0002 1.48193Z" fill="#006633"/>
</svg>
