<svg width="24" height="24" viewBox="0 0 24 24" fill="none" xmlns="http://www.w3.org/2000/svg">
<path d="M12.6711 3.56C12.536 3.56 12.4234 3.46 12.4234 3.34V3.26C12.4234 3.26 12.1367 3.26 11.6187 3.26C11.1232 3.26 10.5766 3.26 10.5766 3.26V3.32C10.5766 3.44 10.4639 3.54 10.3288 3.54C10.1937 3.54 10.0811 3.44 10.0811 3.32V3.26C10.0811 2.56 10.7117 2 11.5 2C12.2883 2 12.9189 2.56 12.9189 3.26V3.32C12.9189 3.46 12.8063 3.56 12.6711 3.56Z" fill="black"/>
<path d="M13.3918 6.40009C13.054 6.40009 12.7612 6.18009 12.7162 5.88009V5.84009C12.6261 5.30009 12.1081 4.90009 11.4999 4.90009C10.8918 4.90009 10.3738 5.30009 10.2837 5.84009V5.88009C10.2387 6.18009 9.94589 6.40009 9.60805 6.40009H9.42787C9.04499 6.40009 8.7522 6.14009 8.7522 5.80009V3.6201C8.7522 3.3401 9.02247 3.1001 9.33778 3.1001H13.4819C13.7972 3.1001 14.0675 3.3401 14.0675 3.6201V5.80009C14.0675 6.14009 13.7522 6.40009 13.3918 6.40009Z" fill="black"/>
<path d="M18.3468 22.0002H4.65315C4.29279 22.0002 4 21.7402 4 21.4202V4.5402C4 4.2202 4.29279 3.96021 4.65315 3.96021H8.12162C8.25676 3.96021 8.36937 4.0602 8.36937 4.1802C8.36937 4.3002 8.25676 4.4002 8.12162 4.4002H4.65315C4.58559 4.4002 4.51802 4.4602 4.51802 4.5202V21.4002C4.51802 21.4602 4.58559 21.5202 4.65315 21.5202H18.3694C18.4369 21.5202 18.5045 21.4602 18.5045 21.4002V4.5402C18.5045 4.4802 18.4369 4.4202 18.3694 4.4202H14.6982C14.5631 4.4202 14.4504 4.3202 14.4504 4.2002C14.4504 4.0802 14.5631 3.9802 14.6982 3.9802H18.3468C18.7072 3.9802 19 4.2402 19 4.5602V21.4402C19 21.7402 18.7072 22.0002 18.3468 22.0002Z" fill="black"/>
<path d="M16.3625 16.5273H6.36652C6.1666 16.5273 6 16.3794 6 16.2019V7.32547C6 7.14794 6.1666 7 6.36652 7H16.3625C16.5624 7 16.729 7.14794 16.729 7.32547V16.2019C16.7623 16.3794 16.5624 16.5273 16.3625 16.5273ZM6.73304 15.8468H15.996V7.62135H6.73304V15.8468Z" fill="black"/>
<path d="M16.7741 19H6.24846C6.11294 19 6 18.7727 6 18.5C6 18.2273 6.11294 18 6.24846 18H16.7515C16.8871 18 17 18.2273 17 18.5C17 18.7727 16.9097 19 16.7741 19Z" fill="black"/>
<path d="M16.7713 21H6.24839C6.11291 21 6 20.7727 6 20.5C6 20.2273 6.11291 20 6.24839 20H16.7487C16.8842 20 16.9971 20.2273 16.9971 20.5C17.0197 20.7727 16.9068 21 16.7713 21Z" fill="black"/>
<path d="M11.2313 11.4371C10.265 11.4371 9.46533 10.727 9.46533 9.86895C9.46533 9.01089 10.265 8.30078 11.2313 8.30078C12.1976 8.30078 12.9972 9.01089 12.9972 9.86895C12.9972 10.727 12.2309 11.4371 11.2313 11.4371Z" fill="black"/>
<path d="M13.8968 16.4976C13.6969 16.4976 13.5303 16.3496 13.5303 16.1721L13.5388 16.2411L8.96546 16.1721C8.96546 16.3496 8.79886 16.4976 8.59894 16.4976C8.39902 16.4976 8.23242 16.3496 8.23242 16.1721V13.0358C8.23242 12.4144 8.79886 11.8818 9.5319 11.8818H13.0305C13.7302 11.8818 14.33 12.3848 14.33 13.0358V16.1721C14.2633 16.3496 14.0967 16.4976 13.8968 16.4976Z" fill="black"/>
</svg>
