<svg width="24" height="24" viewBox="0 0 24 24" fill="none" xmlns="http://www.w3.org/2000/svg">
<path d="M19 19H5V8H19V19ZM16 1V3H8V1H6V3H5C3.89 3 3 3.89 3 5V19C3 19.5304 3.21071 20.0391 3.58579 20.4142C3.96086 20.7893 4.46957 21 5 21H19C19.5304 21 20.0391 20.7893 20.4142 20.4142C20.7893 20.0391 21 19.5304 21 19V5C21 3.89 20.1 3 19 3H18V1" fill="black"/>
<path d="M12 9.5C9.792 9.5 8 11.292 8 13.5C8 15.708 9.792 17.5 12 17.5C14.208 17.5 16 15.708 16 13.5C16 11.292 14.208 9.5 12 9.5ZM12.4 10.82L12.94 10.44C13.668 10.664 14.288 11.144 14.692 11.776L14.536 12.312L13.996 12.496L12.4 11.38V10.82ZM11.06 10.44L11.6 10.82V11.38L10.004 12.496L9.464 12.312L9.308 11.776C9.712 11.148 10.332 10.668 11.06 10.44ZM10.032 15.544L9.576 15.584C9.092 15.024 8.8 14.296 8.8 13.5C8.8 13.452 8.804 13.408 8.808 13.36L9.208 13.068L9.76 13.26L10.344 14.996L10.032 15.544ZM13 16.536C12.684 16.64 12.348 16.7 12 16.7C11.652 16.7 11.316 16.64 11 16.536L10.724 15.94L10.98 15.5H13.024L13.28 15.944L13 16.536ZM12.908 14.7H11.092L10.552 13.092L12 12.076L13.452 13.092L12.908 14.7ZM14.424 15.584L13.968 15.544L13.652 14.996L14.236 13.26L14.792 13.072L15.192 13.364C15.196 13.408 15.2 13.452 15.2 13.5C15.2 14.296 14.908 15.024 14.424 15.584Z" fill="black"/>
</svg>
