<svg width="24" height="24" viewBox="0 0 24 24" fill="none" xmlns="http://www.w3.org/2000/svg">
<path fill-rule="evenodd" clip-rule="evenodd" d="M2 12C2 6.48 6.48 2 12 2C17.52 2 22 6.48 22 12C22 12.6403 21.9397 13.2667 21.8245 13.8736C21.2636 13.489 20.6204 13.2157 19.9266 13.0857C19.975 12.7307 20 12.3682 20 12C20 11.88 19.99 11.77 19.98 11.66L18.98 10.93L17.59 11.4L16.896 13.4629C15.4773 14.1219 14.4193 15.4269 14.1 17H9.45L8.81 18.1L9.5 19.59C10.29 19.85 11.13 20 12 20C12.7903 20 13.5559 19.8762 14.2817 19.6586C14.5148 20.3217 14.8837 20.9208 15.355 21.4226C14.3061 21.7964 13.1767 22 12 22C6.48 22 2 17.52 2 12ZM14.35 4.35L13 5.3V6.7L16.99 9.49L18.34 9.03L18.73 7.69C17.72 6.11 16.17 4.91 14.35 4.35ZM11 5.3L9.65 4.35C7.83 4.92 6.28 6.12 5.27 7.69L5.66 9.03L7.01 9.49L11 6.7V5.3ZM5.94 17.21L7.08 17.11L7.86 15.74L6.4 11.4L5.02 10.92L4.02 11.65C4.01928 11.6586 4.01856 11.6672 4.01785 11.6757C4.00862 11.7858 4 11.8886 4 12C4 13.99 4.73 15.81 5.94 17.21ZM8.38 10.98L9.73 15H14.27L15.63 10.98L12 8.44L8.38 10.98Z" fill="black"/>
<path d="M23.306 15.7073C23.0861 15.483 22.825 15.3052 22.5376 15.1838C22.2502 15.0625 21.9422 15 21.6311 15C21.3201 15 21.012 15.0625 20.7247 15.1838C20.4373 15.3052 20.1762 15.483 19.9563 15.7073L19.4999 16.1724L19.0435 15.7073C18.5993 15.2546 17.9968 15.0002 17.3686 15.0002C16.7404 15.0002 16.138 15.2546 15.6938 15.7073C15.2496 16.16 15 16.7739 15 17.4142C15 18.0544 15.2496 18.6684 15.6938 19.1211L16.1501 19.5862L19.4999 23L22.8496 19.5862L23.306 19.1211C23.526 18.897 23.7006 18.6309 23.8196 18.338C23.9387 18.0451 24 17.7312 24 17.4142C24 17.0971 23.9387 16.7832 23.8196 16.4903C23.7006 16.1975 23.526 15.9314 23.306 15.7073Z" fill="black"/>
</svg>
