<svg width="24" height="24" viewBox="0 0 24 24" fill="none" xmlns="http://www.w3.org/2000/svg">
<path d="M14.27 6.00002C13.72 6.95002 14.05 8.18002 15 8.73002C15.95 9.28002 17.18 8.95002 17.73 8.00002C18.28 7.05002 17.95 5.82002 17 5.27002C16.05 4.72002 14.82 5.05002 14.27 6.00002Z" fill="white"/>
<path d="M15.84 10.4101C15.84 10.4101 14.21 9.47008 13.24 8.91008C11.11 7.67008 10.23 5.08008 11.06 2.84008C11.23 2.38008 11.05 1.87008 10.63 1.63008C10.1 1.33008 9.40998 1.56008 9.19998 2.13008C8.24998 4.64008 8.84998 7.48008 10.66 9.40008L6.00998 17.4501C5.72998 17.9301 5.89998 18.5401 6.37998 18.8201C6.85998 19.1001 7.46998 18.9301 7.74998 18.4501L8.74998 16.7201L10.48 17.7201L7.97998 22.0501C7.69998 22.5301 7.86998 23.1401 8.34998 23.4201C8.82998 23.7001 9.43998 23.5301 9.71998 23.0501L15.51 13.0301C16.49 14.3701 16.77 16.1501 16.17 17.7501C16 18.2001 16.19 18.7101 16.6 18.9501C17.13 19.2601 17.82 19.0301 18.04 18.4501C19.01 15.8301 18.45 12.6101 15.84 10.4101Z" fill="white"/>
<path d="M12.7499 3.80014C13.4699 4.21014 14.3799 3.97014 14.7999 3.25014C15.2099 2.53014 14.9699 1.62014 14.2499 1.20014C13.5299 0.790143 12.6199 1.03014 12.1999 1.75014C11.7899 2.47014 12.0299 3.39014 12.7499 3.80014Z" fill="white"/>
</svg>
