<svg width="24" height="24" viewBox="0 0 24 24" fill="none" xmlns="http://www.w3.org/2000/svg">
<g clip-path="url(#clip0_1426_2760)">
<path d="M7.32408 10.79C8.55021 13.62 10.5257 15.94 12.9354 17.38L14.8086 15.18C15.047 14.9 15.3791 14.82 15.6771 14.93C16.6308 15.3 17.6526 15.5 18.7169 15.5C18.9428 15.5 19.1594 15.6054 19.319 15.7929C19.4787 15.9804 19.5684 16.2348 19.5684 16.5V20C19.5684 20.2652 19.4787 20.5196 19.319 20.7071C19.1594 20.8946 18.9428 21 18.7169 21C14.8779 21 11.196 19.2089 8.4814 16.0208C5.76677 12.8327 4.2417 8.50868 4.2417 4C4.2417 3.73478 4.33141 3.48043 4.49109 3.29289C4.65078 3.10536 4.86736 3 5.09318 3H8.07338C8.29921 3 8.51579 3.10536 8.67547 3.29289C8.83516 3.48043 8.92487 3.73478 8.92487 4C8.92487 5.25 9.09516 6.45 9.41021 7.57C9.50388 7.92 9.43576 8.31 9.19734 8.59L7.32408 10.79Z" fill="#006633"/>
</g>
<defs>
<clipPath id="clip0_1426_2760">
<rect width="24" height="24" fill="white"/>
</clipPath>
</defs>
</svg>
