<svg width="80" height="80" viewBox="0 0 80 80" fill="none" xmlns="http://www.w3.org/2000/svg">
<path d="M80 40C80 17.9062 62.0938 0 40 0C17.9062 0 0 17.9062 0 40C0 59.9687 14.625 76.5156 33.75 79.5156V51.5625H23.5938V40H33.75V31.1875C33.75 21.1641 39.7188 15.625 48.8594 15.625C53.2344 15.625 57.8125 16.4062 57.8125 16.4062V26.25H52.7656C47.7969 26.25 46.25 29.3359 46.25 32.5V40H57.3438L55.5703 51.5625H46.25V79.5156C65.375 76.5156 80 59.9687 80 40Z" fill="#006633"/>
<path d="M55.5703 51.5625L57.3438 40H46.25V32.5C46.25 29.3359 47.7969 26.25 52.7656 26.25H57.8125V16.4062C57.8125 16.4062 53.2344 15.625 48.8594 15.625C39.7188 15.625 33.75 21.1641 33.75 31.1875V40H23.5938V51.5625H33.75V79.5156C35.7891 79.8359 37.875 80 40 80C42.125 80 44.2109 79.8359 46.25 79.5156V51.5625H55.5703Z" fill="white"/>
</svg>
