<svg width="80" height="80" viewBox="0 0 80 80" fill="none" xmlns="http://www.w3.org/2000/svg">
<path fill-rule="evenodd" clip-rule="evenodd" d="M0 40C0 17.9086 17.9086 0 40 0C62.0914 0 80 17.9086 80 40C80 62.0914 62.0914 80 40 80C17.9086 80 0 62.0914 0 40Z" fill="#006633"/>
<path fill-rule="evenodd" clip-rule="evenodd" d="M40.0023 18.667C34.2085 18.667 33.4814 18.6923 31.2058 18.7959C28.9347 18.8999 27.3844 19.2594 26.028 19.787C24.6248 20.3319 23.4346 21.0608 22.2488 22.247C21.0621 23.4328 20.3332 24.6231 19.7866 26.0257C19.2577 27.3826 18.8977 28.9333 18.7954 31.2036C18.6937 33.4791 18.667 34.2067 18.667 40.0005C18.667 45.7944 18.6928 46.5193 18.7959 48.7949C18.9003 51.066 19.2599 52.6162 19.787 53.9727C20.3323 55.3758 21.0612 56.5661 22.2475 57.7518C23.4328 58.9385 24.6231 59.6692 26.0253 60.2141C27.3826 60.7416 28.9333 61.1012 31.204 61.2052C33.4796 61.3088 34.2063 61.3341 39.9997 61.3341C45.7939 61.3341 46.5188 61.3088 48.7944 61.2052C51.0656 61.1012 52.6176 60.7416 53.9749 60.2141C55.3776 59.6692 56.5661 58.9385 57.7514 57.7518C58.9381 56.5661 59.667 55.3758 60.2136 53.9731C60.7381 52.6162 61.0981 51.0656 61.2048 48.7953C61.307 46.5197 61.3337 45.7944 61.3337 40.0005C61.3337 34.2067 61.307 33.4796 61.2048 31.204C61.0981 28.9329 60.7381 27.3826 60.2136 26.0262C59.667 24.6231 58.9381 23.4328 57.7514 22.247C56.5647 21.0604 55.378 20.3315 53.9736 19.787C52.6136 19.2594 51.0624 18.8999 48.7913 18.7959C46.5157 18.6923 45.7913 18.667 39.9957 18.667H40.0023ZM38.0884 22.5114C38.6564 22.5105 39.2902 22.5114 40.0022 22.5114C45.6983 22.5114 46.3734 22.5319 48.6228 22.6341C50.7028 22.7292 51.8317 23.0768 52.5837 23.3688C53.5793 23.7554 54.2891 24.2177 55.0353 24.9643C55.782 25.711 56.2442 26.4221 56.6317 27.4177C56.9237 28.1688 57.2717 29.2977 57.3664 31.3777C57.4686 33.6266 57.4909 34.3022 57.4909 39.9956C57.4909 45.689 57.4686 46.3646 57.3664 48.6135C57.2713 50.6935 56.9237 51.8224 56.6317 52.5735C56.2451 53.5691 55.782 54.278 55.0353 55.0242C54.2886 55.7709 53.5797 56.2331 52.5837 56.6198C51.8326 56.9131 50.7028 57.2598 48.6228 57.3549C46.3739 57.4571 45.6983 57.4793 40.0022 57.4793C34.3057 57.4793 33.6306 57.4571 31.3817 57.3549C29.3017 57.2589 28.1728 56.9113 27.4203 56.6193C26.4248 56.2327 25.7136 55.7704 24.967 55.0238C24.2203 54.2771 23.7581 53.5677 23.3705 52.5717C23.0785 51.8206 22.7305 50.6917 22.6358 48.6117C22.5336 46.3628 22.5132 45.6872 22.5132 39.9903C22.5132 34.2933 22.5336 33.6213 22.6358 31.3724C22.7309 29.2924 23.0785 28.1635 23.3705 27.4115C23.7572 26.4159 24.2203 25.7048 24.967 24.9581C25.7136 24.2114 26.4248 23.7492 27.4203 23.3616C28.1723 23.0683 29.3017 22.7216 31.3817 22.6261C33.3497 22.5372 34.1124 22.5105 38.0884 22.5061V22.5114ZM51.3899 26.0537C49.9766 26.0537 48.8299 27.199 48.8299 28.6128C48.8299 30.0262 49.9766 31.1728 51.3899 31.1728C52.8033 31.1728 53.95 30.0262 53.95 28.6128C53.95 27.1995 52.8033 26.0537 51.3899 26.0537ZM40.0024 29.0448C33.9521 29.0448 29.0467 33.9502 29.0467 40.0005C29.0467 46.0508 33.9521 50.9539 40.0024 50.9539C46.0527 50.9539 50.9563 46.0508 50.9563 40.0005C50.9563 33.9502 46.0527 29.0448 40.0024 29.0448ZM40.0023 32.8893C43.9294 32.8893 47.1135 36.0729 47.1135 40.0005C47.1135 43.9276 43.9294 47.1117 40.0023 47.1117C36.0747 47.1117 32.8911 43.9276 32.8911 40.0005C32.8911 36.0729 36.0747 32.8893 40.0023 32.8893Z" fill="white"/>
</svg>
