<svg width="80" height="80" viewBox="0 0 80 80" fill="none" xmlns="http://www.w3.org/2000/svg">
<path fill-rule="evenodd" clip-rule="evenodd" d="M0 40C0 17.9086 17.9086 0 40 0C62.0914 0 80 17.9086 80 40C80 62.0914 62.0914 80 40 80C17.9086 80 0 62.0914 0 40Z" fill="#006633"/>
<path d="M38.8447 29.9967V53.3337H61.8507C66.7093 52.9605 68.8891 49.6882 68.8891 45.6695C68.8891 41.4212 65.9477 38.0053 62.0083 38.0053C61.0103 38.0053 60.1699 38.235 59.3032 38.6369C58.6729 31.92 53.4467 26.667 47.0123 26.667C43.9396 26.667 41.0245 27.93 38.8447 29.9967ZM36.5336 32.9246C35.7457 32.4079 34.9053 32.0061 33.9861 31.8051V53.3337H37.6366V31.3459C37.2426 31.8051 36.875 32.3792 36.5336 32.9246ZM30.3618 31.3746V53.3337H32.778V31.4607C32.279 31.3746 31.78 31.3459 31.2548 31.3459C30.9396 31.3459 30.6507 31.3459 30.3618 31.3746ZM25.5558 33.2404V53.3337H27.9457V31.92C27.079 32.2357 26.2649 32.695 25.5558 33.2404ZM21.1699 40.4165C21.0123 40.4165 20.8548 40.2443 20.6709 40.1582V53.3337H23.0871V35.709C22.1154 37.0868 21.4588 38.723 21.1699 40.4165ZM15.8123 39.6128V53.0753C16.3639 53.2475 16.9942 53.3337 17.677 53.3337H18.2548V39.3832C18.0447 39.3545 17.8346 39.3258 17.677 39.3258C16.9942 39.3258 16.3639 39.4406 15.8123 39.6128ZM11.1113 46.3297C11.1113 48.4826 12.0043 50.3771 13.3962 51.6688V41.0193C12.0043 42.2824 11.1113 44.2056 11.1113 46.3297Z" fill="white"/>
</svg>
