<svg width="80" height="80" viewBox="0 0 80 80" fill="none" xmlns="http://www.w3.org/2000/svg">
<path fill-rule="evenodd" clip-rule="evenodd" d="M0 40C0 17.9086 17.9086 0 40 0C62.0914 0 80 17.9086 80 40C80 62.0914 62.0914 80 40 80C17.9086 80 0 62.0914 0 40Z" fill="#006633"/>
<path d="M52.4553 37.6776C45.6998 33.6664 34.4053 33.2442 27.9665 35.2498C26.9109 35.5665 25.8553 34.9331 25.5387 33.9831C25.222 32.9276 25.8553 31.872 26.8053 31.5553C34.2998 29.3387 46.6498 29.7609 54.4609 34.4053C55.4109 34.9331 55.7276 36.1998 55.1998 37.1498C54.672 37.8887 53.4053 38.2053 52.4553 37.6776ZM52.2442 43.5887C51.7164 44.3276 50.7665 44.6442 50.0276 44.1164C44.3276 40.6331 35.672 39.5776 29.022 41.6887C28.1776 41.8998 27.2276 41.4776 27.0164 40.6331C26.8053 39.7887 27.2276 38.8387 28.072 38.6276C35.7776 36.3053 45.2776 37.4664 51.822 41.4776C52.4553 41.7942 52.772 42.8498 52.2442 43.5887ZM49.7109 49.3942C49.2887 50.0276 48.5498 50.2387 47.9165 49.8165C42.9553 46.7553 36.7276 46.122 29.3387 47.8109C28.5998 48.022 27.9664 47.4942 27.7553 46.8609C27.5442 46.122 28.072 45.4887 28.7053 45.2776C36.7276 43.4831 43.6942 44.222 49.1831 47.5998C49.922 47.9165 50.0276 48.7609 49.7109 49.3942ZM39.9998 18.8887C37.2274 18.8887 34.4822 19.4347 31.9209 20.4957C29.3596 21.5566 27.0323 23.1116 25.072 25.072C21.1129 29.0311 18.8887 34.4008 18.8887 39.9998C18.8887 45.5988 21.1129 50.9685 25.072 54.9276C27.0323 56.8879 29.3596 58.443 31.9209 59.5039C34.4822 60.5648 37.2274 61.1109 39.9998 61.1109C45.5988 61.1109 50.9685 58.8867 54.9276 54.9276C58.8867 50.9685 61.1109 45.5988 61.1109 39.9998C61.1109 37.2274 60.5648 34.4822 59.5039 31.9209C58.443 29.3596 56.8879 27.0323 54.9276 25.072C52.9672 23.1116 50.64 21.5566 48.0787 20.4957C45.5173 19.4347 42.7721 18.8887 39.9998 18.8887Z" fill="white"/>
</svg>
