<svg width="1920" height="174" viewBox="0 0 1920 174" fill="none" xmlns="http://www.w3.org/2000/svg">
<g clip-path="url(#clip0_1426_3474)">
<path d="M300 0L250 87H350L300 0Z" fill="white"/>
<path d="M250 87L200 174H300L250 87Z" fill="#E5E5E5"/>
<path d="M-3.8147e-06 0L50 87H-50L-3.8147e-06 0Z" fill="#1A1A1A"/>
<path d="M350 87L300 0L400 0L350 87Z" fill="black"/>
<path d="M300 174L250 87L350 87L300 174Z" fill="#1A1A1A"/>
<path d="M150 87L100 0L200 0L150 87Z" fill="#4C9D34"/>
<path d="M100 174L50 87L150 87L100 174Z" fill="#55AE3A"/>
<path d="M-3.8147e-06 174L50 87L-50 87L-3.8147e-06 174Z" fill="#006633"/>
<path d="M250 87L300 0L200 0L250 87Z" fill="#E5E5E5"/>
<path d="M200 174L250 87L150 87L200 174Z" fill="white"/>
<path d="M50 87L0 0L100 0L50 87Z" fill="#1A7547"/>
<path d="M150 87L200 174H100L150 87Z" fill="#4C9D34"/>
<path d="M200 0L250 87H150L200 0Z" fill="#55AE3A"/>
<path d="M100 0L150 87H50L100 0Z" fill="#006633"/>
<path d="M50 87L100 174H0L50 87Z" fill="#1A7547"/>
<path d="M700 0L650 87H750L700 0Z" fill="white"/>
<path d="M1100 0L1050 87H1150L1100 0Z" fill="white"/>
<path d="M1500 0L1450 87H1550L1500 0Z" fill="white"/>
<path d="M1900 0L1850 87H1950L1900 0Z" fill="white"/>
<path d="M650 87L600 174H700L650 87Z" fill="#E5E5E5"/>
<path d="M1050 87L1000 174H1100L1050 87Z" fill="#E5E5E5"/>
<path d="M1450 87L1400 174H1500L1450 87Z" fill="#E5E5E5"/>
<path d="M1850 87L1800 174H1900L1850 87Z" fill="#E5E5E5"/>
<path d="M800 0L850 87H750L800 0Z" fill="#1A1A1A"/>
<path d="M1200 0L1250 87H1150L1200 0Z" fill="#1A1A1A"/>
<path d="M400 0L450 87H350L400 0Z" fill="#1A1A1A"/>
<path d="M1600 0L1650 87H1550L1600 0Z" fill="#1A1A1A"/>
<path d="M750 87L800 174H700L750 87Z" fill="black"/>
<path d="M1150 87L1200 174H1100L1150 87Z" fill="black"/>
<path d="M350 87L400 174H300L350 87Z" fill="black"/>
<path d="M1550 87L1600 174H1500L1550 87Z" fill="black"/>
<path d="M1950 87L2000 174H1900L1950 87Z" fill="black"/>
<path d="M750 87L700 0L800 0L750 87Z" fill="black"/>
<path d="M1150 87L1100 0L1200 0L1150 87Z" fill="black"/>
<path d="M1550 87L1500 0L1600 0L1550 87Z" fill="black"/>
<path d="M1950 87L1900 0L2000 0L1950 87Z" fill="black"/>
<path d="M700 174L650 87L750 87L700 174Z" fill="#1A1A1A"/>
<path d="M1100 174L1050 87L1150 87L1100 174Z" fill="#1A1A1A"/>
<path d="M1500 174L1450 87L1550 87L1500 174Z" fill="#1A1A1A"/>
<path d="M1900 174L1850 87L1950 87L1900 174Z" fill="#1A1A1A"/>
<path d="M550 87L500 0L600 0L550 87Z" fill="#4C9D34"/>
<path d="M950 87L900 0L1000 0L950 87Z" fill="#4C9D34"/>
<path d="M1350 87L1300 0L1400 0L1350 87Z" fill="#4C9D34"/>
<path d="M1750 87L1700 0L1800 0L1750 87Z" fill="#4C9D34"/>
<path d="M500 174L450 87L550 87L500 174Z" fill="#55AE3A"/>
<path d="M900 174L850 87L950 87L900 174Z" fill="#55AE3A"/>
<path d="M1300 174L1250 87L1350 87L1300 174Z" fill="#55AE3A"/>
<path d="M1700 174L1650 87L1750 87L1700 174Z" fill="#55AE3A"/>
<path d="M800 174L850 87L750 87L800 174Z" fill="#006633"/>
<path d="M1200 174L1250 87L1150 87L1200 174Z" fill="#006633"/>
<path d="M400 174L450 87L350 87L400 174Z" fill="#006633"/>
<path d="M1600 174L1650 87L1550 87L1600 174Z" fill="#006633"/>
<path d="M650 87L700 0L600 0L650 87Z" fill="#E5E5E5"/>
<path d="M1050 87L1100 0L1000 0L1050 87Z" fill="#E5E5E5"/>
<path d="M250 87L300 0L200 0L250 87Z" fill="#E5E5E5"/>
<path d="M1450 87L1500 0L1400 0L1450 87Z" fill="#E5E5E5"/>
<path d="M1850 87L1900 0L1800 0L1850 87Z" fill="#E5E5E5"/>
<path d="M600 174L650 87L550 87L600 174Z" fill="white"/>
<path d="M1000 174L1050 87L950 87L1000 174Z" fill="white"/>
<path d="M1400 174L1450 87L1350 87L1400 174Z" fill="white"/>
<path d="M850 87L800 0L900 0L850 87Z" fill="#1A7547"/>
<path d="M1250 87L1200 0L1300 0L1250 87Z" fill="#1A7547"/>
<path d="M450 87L400 0L500 0L450 87Z" fill="#1A7547"/>
<path d="M1650 87L1600 0L1700 0L1650 87Z" fill="#1A7547"/>
<path d="M550 87L600 174H500L550 87Z" fill="#4C9D34"/>
<path d="M950 87L1000 174H900L950 87Z" fill="#4C9D34"/>
<path d="M1350 87L1400 174H1300L1350 87Z" fill="#4C9D34"/>
<path d="M1750 87L1800 174H1700L1750 87Z" fill="#4C9D34"/>
<path d="M600 0L650 87H550L600 0Z" fill="#55AE3A"/>
<path d="M1000 0L1050 87H950L1000 0Z" fill="#55AE3A"/>
<path d="M1400 0L1450 87H1350L1400 0Z" fill="#55AE3A"/>
<path d="M1800 0L1850 87H1750L1800 0Z" fill="#55AE3A"/>
<path d="M500 0L550 87H450L500 0Z" fill="#006633"/>
<path d="M900 0L950 87H850L900 0Z" fill="#006633"/>
<path d="M1300 0L1350 87H1250L1300 0Z" fill="#006633"/>
<path d="M1700 0L1750 87H1650L1700 0Z" fill="#006633"/>
<path d="M450 87L500 174H400L450 87Z" fill="#1A7547"/>
<path d="M850 87L900 174H800L850 87Z" fill="#1A7547"/>
<path d="M1250 87L1300 174H1200L1250 87Z" fill="#1A7547"/>
<path d="M1650 87L1700 174H1600L1650 87Z" fill="#1A7547"/>
</g>
<defs>
<clipPath id="clip0_1426_3474">
<rect width="1920" height="174" fill="white"/>
</clipPath>
</defs>
</svg>
