<svg width="80" height="80" viewBox="0 0 80 80" fill="none" xmlns="http://www.w3.org/2000/svg">
<path fill-rule="evenodd" clip-rule="evenodd" d="M0 40C0 17.9086 17.9086 0 40 0C62.0914 0 80 17.9086 80 40C80 62.0914 62.0914 80 40 80C17.9086 80 0 62.0914 0 40Z" fill="#006633"/>
<path fill-rule="evenodd" clip-rule="evenodd" d="M56.6697 26.2486C58.5055 26.7523 59.9514 28.2367 60.442 30.1217C61.3337 33.5381 61.3337 40.6663 61.3337 40.6663C61.3337 40.6663 61.3337 47.7944 60.442 51.211C59.9514 53.096 58.5055 54.5804 56.6697 55.0844C53.3426 55.9997 40.0003 55.9997 40.0003 55.9997C40.0003 55.9997 26.658 55.9997 23.3308 55.0844C21.4949 54.5804 20.0491 53.096 19.5584 51.211C18.667 47.7944 18.667 40.6663 18.667 40.6663C18.667 40.6663 18.667 33.5381 19.5584 30.1217C20.0491 28.2367 21.4949 26.7523 23.3308 26.2486C26.658 25.333 40.0003 25.333 40.0003 25.333C40.0003 25.333 53.3426 25.333 56.6697 26.2486ZM36.0004 34.6662V47.9995L46.667 41.3331L36.0004 34.6662Z" fill="white"/>
</svg>
