<svg width="38" height="38" viewBox="0 0 38 38" fill="none" xmlns="http://www.w3.org/2000/svg">
<rect width="38" height="38" rx="19" fill="#006633"/>
<path d="M19 7.17236C12.4688 7.17236 7.125 12.5042 7.125 19.0711C7.125 25.0086 11.4712 29.9367 17.1475 30.8274V22.5149H14.1312V19.0711H17.1475V16.4467C17.1475 13.4661 18.9169 11.8274 21.6363 11.8274C22.9306 11.8274 24.2844 12.053 24.2844 12.053V14.9861H22.7881C21.3156 14.9861 20.8525 15.9005 20.8525 16.8386V19.0711H24.1537L23.6194 22.5149H20.8525V30.8274C23.6508 30.3854 26.1989 28.9577 28.0368 26.8018C29.8747 24.646 30.8814 21.9041 30.875 19.0711C30.875 12.5042 25.5312 7.17236 19 7.17236Z" fill="white"/>
</svg>
