<svg width="38" height="38" viewBox="0 0 38 38" fill="none" xmlns="http://www.w3.org/2000/svg">
<rect width="38" height="38" rx="19" fill="#006633"/>
<path d="M30.1031 17.9313H19.2138V21.1731H26.9444C26.5525 25.6975 22.7881 27.6331 19.2256 27.6331C14.6775 27.6331 10.6875 24.0469 10.6875 19C10.6875 14.1312 14.4875 10.3669 19.2375 10.3669C22.9069 10.3669 25.0563 12.7062 25.0563 12.7062L27.3125 10.355C27.3125 10.355 24.415 7.125 19.1188 7.125C12.3738 7.125 7.16064 12.825 7.16064 19C7.16064 24.9969 12.065 30.875 19.2969 30.875C25.65 30.875 30.2813 26.5169 30.2813 20.0806C30.2813 18.715 30.1031 17.9313 30.1031 17.9313Z" fill="white"/>
</svg>
